<?xml version="1.0" standalone="no"?><!DOCTYPE svg PUBLIC "-//W3C//DTD SVG 1.1//EN" "http://www.w3.org/Graphics/SVG/1.1/DTD/svg11.dtd"><svg t="1712305233696" class="icon" viewBox="0 0 1088 1024" version="1.1" xmlns="http://www.w3.org/2000/svg" p-id="1769" xmlns:xlink="http://www.w3.org/1999/xlink" width="212.5" height="200"><path d="M972.298912 790.448083c-31.060997 45.726663-76.791953 32.988092-76.791952 32.988093 9.171943 27.429989-5.07311 65.113498-5.07311 65.113498-31.400063 62.950345-26.97504 101.711139-26.975041 101.711139-43.91116-21.906222-50.108766-110.930293-36.005348-139.205801s-16.193608-48.452065-16.193608-48.452065l23.66593-74.19531s42.675072 70.027806 105.136132 16.708644c52.332007-44.662255 108.260687-26.42996 108.260687-26.42996s-30.829231 5.223329-76.02369 71.761762z" fill="#B1CFE0" p-id="1770"></path><path d="M856.158166 762.872167c55.327804 67.735893 94.57359 12.64844 94.57359 12.64844 33.430165-50.50792 97.582262-56.834285 97.582262-56.834286-18.103535 6.05168-40.889612 23.095098-73.409879 73.598726-21.361142 33.176939-81.33715 38.09983-81.33715 38.099831s26.75615 6.425081-3.137431 58.164796c-29.902165 51.735423-26.979332 101.711139-26.979333 101.711139-35.855129-17.888937-58.490986-89.058407-40.456122-125.213974s-40.314487-85.337268-40.314488-85.337268c48.383394-0.639504 73.478551-16.837404 73.478551-16.837404z" fill="#88ADC2" p-id="1771"></path><path d="M1038.215009 717.94381a10.129053 10.129053 0 0 1 8.407972-9.249198c-3.588088 0.618044-36.417377 7.922979-82.710581 76.066609-26.38704 38.850925-64.143513 29.331333-65.688622 28.919304-3.61384-1.000029-7.485198 0.068672-10.068965 2.781197s-3.455037 6.635388-2.261869 10.193432c7.897227 23.610135-4.807008 57.984534-4.935767 58.315016 0.124467-0.321898 0.26181-0.63092 0.420613-0.944234-32.37434 64.890316-28.1725 105.685504-27.987946 107.389417a10.124761 10.124761 0 0 1 4.257636-9.455213 10.14622 10.14622 0 0 1 10.330775-0.768263c-37.88094-18.89755-43.078517-102.307723-31.46015-125.608835 14.318017-28.700413-6.588176-52.722577-19.640062-61.426695a10.129053 10.129053 0 0 1 4.030162 11.519651l23.670222-74.186726a10.137636 10.137636 0 0 1-18.313842 2.193198c0.87127 1.433518 21.786047 35.142662 57.130431 40.803772 21.172295 3.37349 42.447597-3.905694 63.237907-21.665872 47.121554-40.215772 96.492101-25.150952 98.573708-24.494281l-0.034336-0.008584a10.129053 10.129053 0 0 1-6.957286-10.373695z m11.79863 10.734221a10.129053 10.129053 0 0 0 1.450686-19.622893c-2.506511-0.811183-61.967483-19.446922-117.969126 28.357055-16.039097 13.687097-31.773464 19.429755-46.773905 17.077754-26.052266-4.090249-42.984094-31.099625-43.134312-31.344267a10.141928 10.141928 0 0 0-9.858659-4.794132 10.159096 10.159096 0 0 0-8.450891 6.983037l-23.661639 74.19531a10.184848 10.184848 0 0 0 4.000117 11.485316c2.33054 1.583737 22.498514 16.043389 12.785783 35.524647-16.983331 34.052501-8.716994 128.214062 40.541962 152.794182a10.137636 10.137636 0 0 0 14.596995-10.163388c-0.04292-0.36911-3.429285-37.159889 25.975011-96.101532 0.150219-0.300438 0.287562-0.622336 0.412029-0.944234 0.63092-1.682453 15.395301-41.404648 5.20187-71.903397a10.154804 10.154804 0 0 1-2.270453 10.18914 10.099009 10.099009 0 0 1-10.060381 2.776906c18.240879 5.090278 60.0876 3.87565 87.895282-37.044005 41.237261-60.71852 69.285295-67.452623 69.319631-67.465499z" fill="#6E6E96" p-id="1772"></path><path d="M600.910334 247.801262c149.236138-7.14184 272.771951 160.476811 256.106226 193.864056 0 0-100.784073-77.753354-198.065897-69.654404-91.839604 7.639709-117.222323-45.95843-100.56089-79.345675 16.652849-33.391538-49.52935-40.451831 42.520561-44.863977z" fill="#9FC1D4" p-id="1773"></path><path d="M723.519081 305.257883c136.128457 67.92474 133.497479 136.411727 133.497479 136.411727 16.665725-33.387246-106.870088-201.005897-256.106226-193.864056-10.802892 0.519329-19.343915 1.072993-26.176734 1.69962 18.498397 64.52979 113.75441 122.501448 113.853126 122.565828 0 0.004292 0 0 0 0-0.012876-0.034336-46.288912-107.342205 34.932355-66.813119z" fill="#C0DDED" p-id="1774"></path><path d="M564.329861 257.217847c-0.703883-1.012905-1.652409-2.403504-1.897051-2.909957 0.317606 0.656672 0.93565 2.957168-0.017168 5.686862-0.93565 2.661022-2.738278 4.017285-3.356321 4.30914 2.450716-1.176 11.798629-2.888497 42.434721-4.356351 102.646788-4.914307 187.99264 76.585938 222.229696 125.518704 20.451244 29.215449 23.940617 47.117262 22.404091 50.795481l0.008584-0.030043 18.313842-4.197548c-4.270512-3.291942-105.685504-80.534552-206.499621-72.14804-40.868152 3.399241-72.075076-6.107475-85.607662-26.08231-7.528118-11.116206-8.674074-24.464237-3.060176-35.713494 9.708439-19.498426-0.188847-33.932326-4.952935-40.872444z m-24.142339-6.983038c-4.261928 8.583943 0.969986 16.1979 4.090249 20.74739 4.661081 6.798483 6.261986 10.171972 3.227563 16.257988-9.450921 18.931886-7.648293 42.001232 4.691124 60.212067 10.935943 16.133521 39.468969 42.361758 107.754235 36.674896 91.324568-7.601081 188.662187 66.42255 189.627881 67.16506l11.71279 9.030308 6.601052-13.227856c9.030308-18.099243-5.553811-47.181642-19.386835-68.388272-47.185934-72.358346-144.97421-147.987174-248.178955-143.051407-44.572123 2.137402-55.250548 4.725461-60.139104 14.579826z" fill="#6E6E96" p-id="1775"></path><path d="M95.084335 449.841524c-7.14184-11.511067-12.914542-22.760324-17.318105-33.691976-17.197929-35.189874-39.606312-86.84375-30.395741-100.548014C61.705673 294.27902 91.487663 304.72997 91.487663 304.72997v0.017168c11.644118-12.609812 27.464325-23.464208 47.559335-32.202661 101.324861-44.065671 250.629671-101.857066 389.427734 41.863889 138.815231 143.733831 355.791554 560.527175 278.321471 481.752331-149.369189-151.910036-390.303297-79.487311-566.123906-203.782802-68.933353-48.731043-117.501301-97.419167-145.381948-142.205889v0.042919l-0.206014-0.373401z" fill="#D4DBDE" p-id="1776"></path><path d="M106.028862 443.055917c-6.695475-10.790016-12.184907-21.459857-16.318075-31.717669a13.227856 13.227856 0 0 0-0.373402-0.841226c-35.636239-72.916302-31.181172-87.676392-30.970866-88.268684 0 0-0.081547 0.223183-0.30473 0.553664 8.532439-12.691359 28.395683-6.163271 29.23691-5.880001A12.777199 12.777199 0 0 1 78.61604 304.72997a12.875914 12.875914 0 1 0 22.33542 8.75133c10.575418-11.45098 25.125201-21.253842 43.233028-29.12961 114.947578-49.984299 248.204707-92.320305 375.032462 39.001144 118.84898 123.059404 291.944188 444.030195 290.96991 478.202872 0.04292-1.343387 1.274716-4.828468 4.85422-6.957286 3.57092-2.120234 7.22768-1.540818 8.433724-0.931358-0.090131-0.04292-2.188905-1.145956-7.493783-6.536672-82.980975-84.388742-194.288962-102.196131-301.927313-119.402645-91.813853-14.691418-186.75226-29.876413-265.947716-85.86518-65.040535-45.97989-114.10206-93.873999-141.883991-138.501918a12.875914 12.875914 0 0 0-23.807566 6.802775c0-5.819913 3.905694-10.897315 9.528177-12.412381s11.558279 0.95711 14.485403 5.991592l-0.399153-0.686716z m2.13311 7.150425v-0.04292a12.871622 12.871622 0 0 1-23.807566 6.802775c29.580267 47.516416 81.062464 97.96854 148.879905 145.918444 84.084012 59.443804 182.0268 75.1095 276.746316 90.255867 108.295023 17.318105 210.589869 33.687684 287.639341 112.037621 5.764118 5.849957 21.05212 21.408353 33.365786 9.40371 7.476614-7.279184 10.511038-17.300937-18.644324-80.208362-17.670046-38.112706-43.649349-87.440334-73.139485-138.892487-71.890521-125.424281-147.210328-233.843771-201.465138-290.029968C387.882625 150.291963 222.671769 222.135273 133.9138 260.737263c-21.412645 9.309286-38.868093 21.180879-51.885642 35.275714a12.875914 12.875914 0 0 1 22.335419 8.734161 12.901666 12.901666 0 0 0-8.613987-12.167739c-14.554075-5.103154-43.366079-7.51095-59.06611 15.841667-7.416527 11.03895-9.704147 33.138311 29.511595 113.385301a11.373724 11.373724 0 0 1-0.373401-0.841227c4.686833 11.622659 10.850104 23.623011 18.322426 35.666283a14.421024 14.421024 0 0 1-0.407738-0.708176l0.416322 0.751095a12.880206 12.880206 0 0 0 14.485403 5.970133 12.88879 12.88879 0 0 0 9.523885-12.438133z" fill="#6E6E96" p-id="1777"></path><path d="M579.841046 201.023065c124.544427 128.956573 146.613744 306.777241 207.297928 441.085902 57.01884 126.175376 98.586583 123.492894 68.160798 152.880022-79.487311 76.761909-285.802377-349.654035-563.385628-435.351828-151.249073-46.696649-205.945956-74.989325-241.389057-133.815085C-0.394861 141.295991 16.575594 31.060997 81.659048 28.039449c121.428455-5.643942 296.36921-35.96672 498.181998 172.983616z" fill="#B1CFE0" p-id="1778"></path><path d="M42.503393 51.636708c124.540135-2.643854 296.622436-12.107651 502.044772 200.585284 134.570472 139.343144 176.807762 313.056395 280.686347 461.683073 1.802628 2.583767 0 0 1.703912 2.489344-11.064702-17.614251-23.734602-43.790984-37.322983-73.843368-60.684184-134.30437-82.753501-312.125037-207.302219-441.085903C380.509018-7.48949 205.585431 22.83758 84.1441 28.47723c-17.502659 0.815475-31.48161 9.425169-41.640707 23.159478z" fill="#C0DDED" p-id="1779"></path><path d="M322.228338 372.933688s-42.739451 27.700384-118.188017 20.502748C114.651432 384.91258 7.957315 302.184831 41.915393 207.830132" fill="#F0F0FF" p-id="1780"></path><path d="M316.391257 363.929132l0.034336-0.02146c-0.403445 0.257518-41.044123 25.55869-111.368075 18.846047-55.662577-5.304877-113.930381-39.597728-141.699436-83.388713-12.511097-19.725901-24.631624-50.98862-11.347972-87.899574l-20.189434-7.266308c-12.84587 35.679158-8.206249 72.564361 13.416703 106.65549 31.082457 49.014314 95.964189 87.363078 157.785745 93.260247 78.264099 7.46803 123.166704-20.96628 125.042295-22.176617l-11.674162-18.009112z" fill="#6E6E96" p-id="1781"></path><path d="M104.488044 50.76973c0 45.71808 50.980036 93.127196 50.980037 93.127196-73.551514-108.385154 42.872502-86.569063 42.872502-86.569064S104.488044 5.047358 104.488044 50.76973z" fill="#C0DDED" p-id="1782"></path><path d="M50.520796 225.817784c35.4431 58.82576 90.139984 87.118436 241.384764 133.815085 277.587543 85.702085 483.906901 512.113737 563.381336 435.35612 17.511243-16.901783 10.2106-18.953346-9.180527-45.280298 0 0-7.274892 51.739715-56.748446-3.008672-49.460679-54.748387-201.804204-387.264581-437.90126-483.095719-206.928818-83.989589-209.117723-137.905334-239.37183-200.353517-8.669782-17.918981-23.974952-32.945173-46.894079-31.824968C14.06479 50.846985 4.210424 148.95716 50.520796 225.817784z" fill="#9FC1D4" p-id="1783"></path><path d="M361.989161 190.284553m-22.494222 0a22.494222 22.494222 0 1 0 44.988444 0 22.494222 22.494222 0 1 0-44.988444 0Z" fill="#6E6E96" p-id="1784"></path><path d="M346.4651 576.252958C243.826896 558.067875 67.040593 382.912522 86.646319 386.384727c54.825643 9.712731 153.983058 48.28897 219.27682 34.949523 128.86215-26.322661 316.932045 228.577522 316.932045 228.577521 85.792217 86.933881-103.874292-43.095685-276.390084-73.658813z" fill="#E8EFF2" p-id="1785"></path><path d="M466.262607 635.267565c0.626628 28.610281-33.777815 53.877117-63.053352-18.326718-29.271245-72.199543-4.729752-157.322212-4.729753-157.322212 22.047857-47.125846 67.139309 147.030065 67.783105 175.64893z" fill="#DCE3E6" p-id="1786"></path><path d="M113.080571 36.417377c117.06352-7.124673 277.385821-16.884616 459.464124 171.648813 84.491749 87.474669 120.660192 197.091619 155.656927 303.09473 15.815915 47.915569 30.747683 93.165824 49.705321 135.119844 26.378456 58.392271 49.928503 90.212947 63.993294 109.209212 16.54555 22.365463 16.54555 22.365463 6.352118 32.211246-4.721169 4.558074-9.789987 6.571008-15.974718 6.33495-33.533173-1.283299-89.775166-64.598462-154.897248-137.905334-102.573825-115.458323-230.234223-259.166402-382.483325-306.172073-152.150387-46.975627-202.812817-74.78331-235.697902-129.36431C24.683128 163.292344 24.859098 99.204627 42.876794 65.516944c6.386453-11.944556 18.382514-26.38704 39.254371-27.357026l30.949406-1.742541z m-1.227504-20.223769l-30.666136 1.725373c-23.695974 1.098745-43.649349 14.609871-56.181906 38.039742C0.854102 101.118847 7.931563 174.760492 41.838137 231.049697c36.022516 59.78287 89.13137 89.504772 247.080211 138.270151 146.84551 45.331802 272.415718 186.692173 373.311381 300.274904 73.787573 83.066815 127.102441 143.081451 169.266769 144.690941 11.738542 0.446365 22.107945-3.588088 30.833523-12.008936 22.979215-22.189492 12.768615-35.98818-4.150337-58.838636-14.463944-19.54993-36.322954-49.082985-61.812972-105.505242-18.515565-40.975451-33.28853-85.740713-48.928474-133.128369-35.692034-108.166264-72.620156-220.015039-160.318008-310.820278C398.552466-1.257548 232.843741 8.828585 111.853067 16.193608z" fill="#6E6E96" p-id="1787"></path><path d="M505.941882 802.4141c62.422432 53.782694 6.927242-93.813911 76.852041-233.963946 27.442865-54.988738-102.556657-130.205537-102.556657-130.205537-136.059786-117.020601-36.709232 310.373913 25.704616 364.169483z" fill="#9FC1D4" p-id="1788"></path><path d="M505.941882 802.4141c48.782547 36.245699 27.528705-13.571214 37.580502-75.555865-0.004292 0.02146 0.004292-0.034336 0 0-21.399769 196.379152-69.62436-111.724308-77.688975-190.941224-13.880236-136.270092 61.967483-68.280973 61.967484-68.280974 0.93565-41.572035 12.850162 10.382279-3.849899-11.519651-25.455682-22.863332-43.709437-17.871769-43.709436-17.871769-12.62698-10.858688-23.219565-17.013375-32.005231-19.228032-3.128847-0.472117-6.223359-0.716759-9.304994-0.811182-69.834667 6.648264 9.369374 341.374822 67.010549 384.208697z" fill="#B1CFE0" p-id="1789"></path><path d="M488.168829 420.917929c-43.941203-28.614573-60.864447-16.601345-72.336887-3.279067-31.468734 36.550429-8.455184 153.22338 2.901373 201.684029 18.116411 77.332741 49.653817 166.764549 79.272712 192.293196 10.171972 8.768498 23.502835 18.133579 36.33583 12.678483 16.077725-6.83711 17.270893-28.331303 19.455507-67.341031 2.588059-46.254576 6.489461-116.157914 39.872414-183.069749 31.627537-63.392418-91.187225-144.678064-105.500949-152.965861z m-53.902869 12.58406c8.07749-9.38225 29.138194 1.970015 39.880998 11.210629 0 0-0.004292-0.004292 0 0 31.151129 18.043448 115.969068 81.822143 97.762525 118.3039-35.623363 71.401236-39.696444 144.321831-42.391802 192.567882-1.064409 19.034893-2.386336 42.717991-5.957256 47.177349 0.54508-0.678131 2.085898-1.300467 2.948584-1.180292-0.145927-0.017168-3.532292-0.553664-12.631272-8.390804-46.696649-40.241524-116.599987-316.726031-79.611777-359.688664z" fill="#6E6E96" p-id="1790"></path><path d="M513.787606 957.169713c10.82006 17.777346 6.274862 27.206807-2.970044 32.829289-9.25349 5.635358-19.725901 5.330628-30.537377-12.429549-10.82006-17.773054-19.339623-48.662372-10.090425-54.284854 9.25349-5.63965 32.777786 16.120645 43.597846 33.885114z" fill="#61A7D9" p-id="1791"></path><path d="M602.021954 831.376323c6.399329 10.506746 4.373519 15.708615-0.309022 18.545608-4.669665 2.849869-10.2106 2.270453-16.614221-8.249169s-12.099067-28.408559-7.42511-31.245552c4.665373-2.849869 17.940441 10.416615 24.348353 20.949113z" fill="#61A7D9" p-id="1792"></path><path d="M804.976407 163.429688c9.189111 5.918629 7.644001 13.8459 2.639562 21.61866s-11.575447 12.451009-20.777433 6.53238c-9.201987-5.918629-18.751623-20.992032-13.742893-28.764792 5.004439-7.77276 22.674485-5.304877 31.880764 0.613752z" fill="#61A7D9" p-id="1793"></path><path d="M952.225362 638.611011c6.403621 10.511038 4.373519 15.708615-0.30473 18.5499-4.669665 2.845577-10.214892 2.266161-16.618513-8.253461-6.395037-10.51533-12.094775-28.404267-7.420819-31.245552 4.661081-2.845577 17.940441 10.429491 24.344062 20.949113z" fill="#61A7D9" p-id="1794"></path><path d="M325.176922 780.559381c6.047388 9.923038 2.193197 16.021929-4.613869 20.155098-6.794191 4.150336-13.966075 4.772672-20.017755-5.163241-6.05168-9.935914-9.502425-28.017989-2.69965-32.159742 6.794191-4.150336 21.279594 7.214804 27.331274 17.167885z" fill="#61A7D9" p-id="1795"></path><path d="M131.231318 359.675789s-75.749003-59.418052-19.558514-40.232941c56.19049 19.185112 165.052053 55.825672 186.396027 52.851336 0 0-209.692847-70.671601-252.183365-147.420634 0.004292 0-17.073462 95.543576 85.345852 134.802239z" fill="#6E6E96" p-id="1796"></path></svg>